<?xml version="1.0" encoding="utf-8"?>
<!-- Generator: Adobe Illustrator 26.1.0, SVG Export Plug-In . SVG Version: 6.00 Build 0)  -->
<svg version="1.1" id="Layer_2_00000036229565188242933090000005053643003727163265_"
	 xmlns="http://www.w3.org/2000/svg" xmlns:xlink="http://www.w3.org/1999/xlink" x="0px" y="0px" viewBox="0 0 656.6 720.4"
	 style="enable-background:new 0 0 656.6 720.4;" xml:space="preserve">
<style type="text/css">
	.st0{opacity:0.1;fill:#059669;enable-background:new    ;}
	.st1{fill:#059669;}
	.st2{fill:#FFFFFF;}
	.st3{fill:#047857;}
	.st4{opacity:0.1;}
</style>
<g id="Layer_2-2">
	<g>
		<circle class="st0" cx="328.3" cy="392.1" r="328.3"/>
		<g>
			<path class="st1" d="M219.9,185.8c-0.2,0-0.4-0.1-0.6-0.2c-0.4-0.3-0.6-0.9-0.2-1.4c0.2-0.3,18.3-26.4-1.9-50.2
				c-8.3-9.8-19.5-13.5-29.1-13.5c-0.1,0-0.2,0-0.3,0c1.9,6.7,1.6,12.6-1.1,17.1c-2.6,4.3-7.1,6.8-11.7,6.4c-4-0.3-7.2-2.8-8.7-6.8
				c-2.2-5.8,0.1-11.4,6.2-15c3.3-1.9,7.7-3.2,12.6-3.6c-1.3-3.4-3.1-7.1-5.6-10.8c-7.3-11.1-20.6-18.8-36.4-21.1
				c-13.4-2-26.3,0.3-32.8,5.9c-0.4,0.4-1.1,0.3-1.4-0.1c-0.4-0.4-0.3-1.1,0.1-1.4c6.9-5.9,20.4-8.3,34.4-6.3
				c16.4,2.4,30.2,10.4,37.8,22c2.7,4.1,4.7,8,6,11.8c10.3-0.2,22.6,3.6,31.5,14.2c21.2,25,2.2,52.4,2,52.7
				C220.5,185.7,220.2,185.8,219.9,185.8L219.9,185.8z M185.7,120.6c-4.8,0.3-9.1,1.5-12.2,3.4c-5.3,3.1-7.2,7.7-5.4,12.6
				c1.2,3.2,3.8,5.2,7,5.5c3.8,0.3,7.6-1.8,9.8-5.5C187.4,132.4,187.6,126.9,185.7,120.6L185.7,120.6z"/>
			<g>
				<path class="st1" d="M93,108.7c-1.5,0.4-3.1,0.4-4.5-0.2c-1.7-0.7-3-2-3.7-3.7s-0.7-3.5,0-5.2c0.7-1.7,2-3,3.7-3.7
					c3.5-1.4,7.4,0.2,8.9,3.6c1.4,3.5-0.2,7.4-3.6,8.9C93.4,108.5,93.2,108.6,93,108.7z M89.7,97.6c-0.2,0-0.3,0.1-0.5,0.2
					c-1.2,0.5-2.1,1.4-2.6,2.6c-0.5,1.2-0.5,2.5,0,3.7c0.5,1.2,1.4,2.1,2.6,2.6c1.2,0.5,2.5,0.5,3.7,0c2.4-1,3.6-3.8,2.6-6.3
					C94.5,98,92,96.9,89.7,97.6L89.7,97.6z"/>
				<path class="st1" d="M93,93c-1.5,0.4-3.1,0.4-4.5-0.2c-1.7-0.7-3-2-3.7-3.7l0,0c-0.7-1.7-0.7-3.5,0-5.2s2-3,3.7-3.7
					c1.7-0.7,3.5-0.7,5.2,0c1.7,0.7,3,2,3.7,3.7c0.7,1.7,0.7,3.5,0,5.2c-0.7,1.7-2,3-3.7,3.7C93.4,92.9,93.2,93,93,93z M89.7,81.9
					c-0.2,0-0.3,0.1-0.5,0.2c-1.2,0.5-2.1,1.4-2.6,2.6c-0.5,1.2-0.5,2.5,0,3.7l0,0c0.5,1.2,1.4,2.1,2.6,2.6c1.2,0.5,2.5,0.5,3.7,0
					c1.2-0.5,2.1-1.4,2.6-2.6c0.5-1.2,0.5-2.5,0-3.7c-0.5-1.2-1.4-2.1-2.6-2.6C91.8,81.6,90.7,81.6,89.7,81.9L89.7,81.9z"/>
				<ellipse class="st2" cx="91" cy="94.2" rx="8.9" ry="5.9"/>
				<path class="st1" d="M95,100.5c-1.2,0.4-2.6,0.6-3.9,0.6c-5.5,0-9.9-3-9.9-6.9c0-3.9,4.3-6.9,9.9-6.9c2.6,0,5,0.7,6.8,1.9
					c2,1.3,3.1,3.1,3.1,5s-1.1,3.7-3,5C97,99.8,96,100.2,95,100.5L95,100.5z M87.7,89.7c-2.7,0.8-4.6,2.5-4.6,4.5
					c0,2.7,3.6,4.9,7.9,4.9c2.2,0,4.2-0.6,5.7-1.6c1.4-0.9,2.2-2.1,2.2-3.4c0-1.2-0.8-2.4-2.2-3.4c-1.5-1-3.6-1.6-5.7-1.6
					C89.8,89.2,88.7,89.4,87.7,89.7L87.7,89.7z"/>
				<polygon class="st1" points="93.2,99.9 93,88.4 90.1,88.2 89.9,100 				"/>
				<circle class="st1" cx="79.2" cy="95.7" r="0.9"/>
				<circle class="st1" cx="80" cy="90.8" r="0.9"/>
			</g>
		</g>
		<g>
			<path class="st1" d="M384.6,132.8c-0.4,0-0.8-0.3-1-0.7c-0.1-0.2-5.4-18-2.6-38c2.6-18.6,12.8-43,47-53.7
				c5.6-1.7,10.5-2.8,14.7-3.4c1.6-10.1,7.7-21,21.4-28.5c32.6-17.9,54.6-1.8,54.8-1.7c0.4,0.3,0.5,1,0.2,1.4
				c-0.3,0.4-1,0.5-1.4,0.2c-0.2-0.2-21.2-15.4-52.6,1.8c-12.8,7-18.7,17.1-20.3,26.5c15.1-1.5,22.3,3.5,25.5,7.3
				c4.1,4.8,5,11.5,2.3,16.9c-2.3,4.6-6.7,7.2-11.8,6.9c-8.4-0.5-15.4-7.6-17.8-18c-0.7-3.3-1-6.9-0.6-10.8
				c-4.3,0.6-8.9,1.6-13.9,3.2c-26.6,8.3-42,25.8-45.6,52.1c-2.7,19.6,2.5,37,2.5,37.2c0.2,0.5-0.1,1.1-0.7,1.2
				C384.8,132.8,384.7,132.8,384.6,132.8L384.6,132.8z M444.6,38.8c-0.4,3.8-0.2,7.4,0.5,10.6c2.2,9.6,8.4,16.1,15.9,16.5
				c4.3,0.2,8-1.9,9.9-5.8c2.4-4.7,1.6-10.5-2-14.8C464.3,39.9,455.7,37.7,444.6,38.8L444.6,38.8z"/>
			<g>
				<path class="st1" d="M542.4,16.9c-1.4,0-2.7-0.4-3.8-1.1c-1.6-1-2.7-2.6-3.1-4.5c-0.8-3.8,1.6-7.7,5.5-8.5
					c3.8-0.8,7.7,1.6,8.5,5.5l0,0c0.8,3.8-1.6,7.7-5.5,8.5C543.4,16.8,542.9,16.9,542.4,16.9z M542.4,4.6c-0.4,0-0.7,0-1.1,0.1
					c-2.8,0.6-4.5,3.3-3.9,6.1c0.3,1.3,1.1,2.5,2.2,3.2c1.2,0.7,2.5,1,3.9,0.7c2.8-0.6,4.5-3.3,3.9-6.1
					C546.9,6.2,544.8,4.6,542.4,4.6z"/>
				<path class="st1" d="M539.4,33.2c-1.4,0-2.7-0.4-3.8-1.1c-1.6-1-2.7-2.6-3.1-4.5c-0.4-1.9-0.1-3.8,1-5.4c1-1.6,2.6-2.7,4.5-3.1
					c1.9-0.4,3.8-0.1,5.4,1c1.6,1,2.7,2.6,3.1,4.5c0.4,1.9,0.1,3.8-1,5.4c-1,1.6-2.6,2.7-4.5,3.1C540.4,33.2,539.9,33.2,539.4,33.2z
					 M539.4,20.9c-0.4,0-0.7,0-1.1,0.1c-1.3,0.3-2.5,1.1-3.2,2.2c-0.7,1.2-1,2.5-0.7,3.9c0.3,1.3,1.1,2.5,2.2,3.2
					c1.2,0.7,2.5,1,3.9,0.7c1.3-0.3,2.5-1.1,3.2-2.2c0.7-1.2,1-2.5,0.7-3.9c-0.3-1.3-1.1-2.5-2.2-3.2
					C541.3,21.2,540.4,20.9,539.4,20.9L539.4,20.9z"/>
				
					<ellipse transform="matrix(0.1815 -0.9834 0.9834 0.1815 424.9023 546.6764)" class="st2" cx="540.8" cy="18.1" rx="6.3" ry="9.4"/>
				<path class="st1" d="M542.2,25.5c-0.9,0-1.8-0.1-2.7-0.2c-2.7-0.5-5.1-1.7-6.7-3.3c-1.8-1.7-2.6-3.8-2.2-5.8
					c0.4-2,1.8-3.6,4.1-4.6c2.1-0.9,4.8-1.2,7.5-0.7c2.7,0.5,5.1,1.7,6.7,3.3c1.8,1.7,2.6,3.8,2.2,5.8c-0.4,2-1.8,3.6-4.1,4.6
					C545.6,25.2,543.9,25.5,542.2,25.5z M539.5,12.7c-1.4,0-2.8,0.3-4,0.8c-1.6,0.7-2.7,1.8-2.9,3.1c-0.2,1.3,0.3,2.7,1.6,4
					c1.4,1.4,3.4,2.3,5.7,2.8c2.3,0.4,4.5,0.2,6.3-0.5c1.6-0.7,2.7-1.8,2.9-3.1l0,0c0.2-1.3-0.3-2.7-1.6-4c-1.4-1.4-3.4-2.3-5.7-2.8
					C541,12.8,540.2,12.7,539.5,12.7L539.5,12.7z"/>
				<polygon class="st1" points="539.7,11.7 537.7,23.7 540.6,24.4 543.1,12.2 				"/>
				<circle class="st1" cx="551.7" cy="23.7" r="1"/>
				<circle class="st1" cx="553.4" cy="18.7" r="1"/>
			</g>
		</g>
		<g>
			<path class="st1" d="M555.5,200.3v373.5c0,8.9-7.2,16.1-16.1,16.1H67.2c-8.9,0-16.1-7.2-16.1-16.1V273.2
				c0-8.9,7.2-16.1,16.1-16.1h283.2c8.9,0,16.1-7.2,16.1-16.1v-40.8c0-8.9,7.2-16.1,16.1-16.1h156.8
				C548.3,184.2,555.5,191.4,555.5,200.3L555.5,200.3z"/>
			<path class="st3" d="M539.4,590.9H67.2c-9.4,0-17.1-7.7-17.1-17.1V273.2c0-9.4,7.7-17.1,17.1-17.1h283.2
				c8.3,0,15.1-6.8,15.1-15.1v-40.8c0-9.4,7.7-17.1,17.1-17.1h156.8c9.4,0,17.1,7.7,17.1,17.1v373.5
				C556.5,583.2,548.8,590.9,539.4,590.9L539.4,590.9z M67.2,258.2c-8.3,0-15.1,6.8-15.1,15.1v300.6c0,8.3,6.8,15.1,15.1,15.1h472.2
				c8.3,0,15.1-6.8,15.1-15.1V200.3c0-8.3-6.8-15.1-15.1-15.1H382.6c-8.3,0-15.1,6.8-15.1,15.1v40.8c0,9.4-7.7,17.1-17.1,17.1
				L67.2,258.2L67.2,258.2z"/>
			<g>
				<path class="st2" d="M585.5,200.3v373.5c0,8.9-7.2,16.1-16.1,16.1H97.2c-8.9,0-16.1-7.2-16.1-16.1V273.2
					c0-8.9,7.2-16.1,16.1-16.1h283.2c8.9,0,16.1-7.2,16.1-16.1v-40.8c0-8.9,7.2-16.1,16.1-16.1h156.8
					C578.3,184.2,585.5,191.4,585.5,200.3L585.5,200.3z"/>
				<path class="st3" d="M569.4,590.9H97.2c-9.4,0-17.1-7.7-17.1-17.1V273.2c0-9.4,7.7-17.1,17.1-17.1h283.2
					c8.3,0,15.1-6.8,15.1-15.1v-40.8c0-9.4,7.7-17.1,17.1-17.1h156.8c9.4,0,17.1,7.7,17.1,17.1v373.5
					C586.5,583.2,578.8,590.9,569.4,590.9L569.4,590.9z M97.2,258.2c-8.3,0-15.1,6.8-15.1,15.1v300.6c0,8.3,6.8,15.1,15.1,15.1
					h472.2c8.3,0,15.1-6.8,15.1-15.1V200.3c0-8.3-6.8-15.1-15.1-15.1H412.6c-8.3,0-15.1,6.8-15.1,15.1v40.8
					c0,9.4-7.7,17.1-17.1,17.1L97.2,258.2L97.2,258.2z"/>
			</g>
			<g>
				<g>
					<circle class="st1" cx="295.2" cy="377.6" r="11.1"/>
					<circle class="st1" cx="371.4" cy="377.6" r="11.1"/>
				</g>
				<rect x="318.4" y="406.6" class="st1" width="29.8" height="2"/>
			</g>
			<g class="st4">
				<ellipse class="st1" cx="283.7" cy="404.2" rx="9.9" ry="5.2"/>
				<ellipse class="st1" cx="382.9" cy="404.2" rx="9.9" ry="5.2"/>
			</g>
		</g>
	</g>
</g>
</svg>
