<svg xmlns="http://www.w3.org/2000/svg" version="1.1" xmlns:xlink="http://www.w3.org/1999/xlink" xmlns:svgjs="http://svgjs.dev/svgjs" viewBox="0 0 600 600" opacity="1"><path d="M531.9679273992796 300.0575343464328C493.52650589049057 263.7081640257948 324.0704359442015 199.37760779207085 282.4909376531859 205.91526139721407C240.91143936217026 212.4529150023573 289.42085657815335 301.6265498493625 282.4909376531859 339.2834559772922C275.5610187282184 376.9403621052219 202.47000259459213 417.7353602741672 240.9114241033812 431.8566981647922C279.35284561217026 445.9780360554172 464.63004948993716 445.97801062410207 513.1394667059203 424.0114833210422C561.6488839219033 402.0449560179823 570.4093489080686 336.4069046670708 531.9679273992796 300.0575343464328C493.52650589049057 263.7081640257948 324.0704359442015 199.37760779207085 282.4909376531859 205.91526139721407 " fill="hsl(160, 84%, 39%)" transform="matrix(1.000000000000001,-0.5183471240341333,0.17632698070846414,0.9086014166601464,-146.79957801643627,211.2523971340931)" stroke-width="4" stroke="hsl(164, 86%, 16%)" fill-opacity="1" stroke-opacity="0.05"></path><defs></defs><path d="M408.27011561044765 151.7801988038163C369.8286941016586 115.43082848317829 200.37262415536952 51.10027224945432 158.7931258643539 57.63792585459754C117.21362757333827 64.17557945974076 165.72304478932136 153.34921430674598 158.7931258643539 191.00612043467567C151.86320693938643 228.66302656260535 78.77219080576015 269.45802473155067 117.21361231454921 283.57936262217567C155.65503382333827 297.70070051280067 340.9322377011052 297.70067508148554 389.4416549170883 275.73414777842567C437.9510721330713 253.7676204753658 446.7115371192367 188.1295691244543 408.27011561044765 151.7801988038163C369.8286941016586 115.43082848317829 200.37262415536952 51.10027224945432 158.7931258643539 57.63792585459754 " fill-opacity="1" fill="none" opacity="1" stroke-opacity="0.58" stroke-width="4" stroke="hsl(224, 76%, 48%)" transform="matrix(1.000000000000001,-0.5183471240341333,0.17632698070846414,0.9086014166601468,18.514554673993416,306.59727628448354)"></path></svg>