<svg xmlns="http://www.w3.org/2000/svg" viewBox="0 0 953.44 590.13"><defs><style>.cls-1{fill:#059669;}.cls-1,.cls-2{fill-rule:evenodd;}</style></defs><g id="Layer_2" data-name="Layer 2"><g id="Layer_1-2" data-name="Layer 1"><path id="Accent" class="cls-1" d="M703.32,476.16c-4.52,5.22-11.19,9.1-16.3,13.88-5.38,5-11.21,9.4-16.56,14.35-23.62-28.86-56-46.55-84-70.5-13.28-11.36-23.07-26.76-30.23-42.57a142.12,142.12,0,0,1-8.51-25.07c-1-3.89-1.89-7.76-2.52-11.7-.76-4.78-1-5.18-4.17-8.91-1.39-1.6-4.07-6.29-6.79-5.77-2.28.43-6.46,7.39-7.91,9.11-6.94,8.26-13.67,16.77-21,24.72-11.19,12.15-21.37,24.11-31.76,37-21.24,26.36-44.16,51.17-67.28,76-1.71,1.84-5.71,7.23-8.18,7.95-3,.88-7.86-2.79-10.88-4.84-7.28-5-13-11.1-19.25-17.24-12.15-12-20.37-28.83-25.91-44.85-3.31-9.58-5.47-19.52-8.88-29.07-1.43-4-4.66-8.88-3-12.35.49-1,3.6-3.78,4.69-4,1.3-.25,3.46,1.53,3.91,1.41,4.3-1.18,1.91-5.68,4.47-8.1,1.45-1.38,8.83-1.18,11-1.93,8.05-2.76,15.27-8,22.88-11.18,31.87-13.16,64.12-26,91.62-47.46,7.14-5.58,11.88-9.77,20.39-13.37s17.25-6.89,26-10.07a244.26,244.26,0,0,1,23.53-7.44c8.65-2.17,20.92-4.92,29.56-2.12,17,5.49,22.45,19.48,29.21,34.23,9.15,20,20.21,38.85,32.19,57.22,23.06,35.35,51.11,67.07,73.61,102.7"/><g id="ink"><path id="ink-layer" class="cls-2" d="M192.16,163.66c-.93-.47-8.23,2.5-9.45,3-4.89,1.81-9.49,4.83-14.1,7.28l10.59,12.89c3.46-8.49,7.91-15.49,13-23.12Zm2.41,52.81c-1.2.13,8.94,24.5,10.12,27.24,4.31,9.95,8.83,19.8,13.2,29.73,4.23,9.62,9.6,18.46,15,27.45,4.63,7.69,9.38,19.61,16.36,25.3-4.41-19.53-3.83-42-16.46-58.4-13.09-17-26-33.62-38.22-51.32ZM703.32,477c-19.57-31-44.06-58.4-64.46-88.83-11.43-17-22.55-34.3-32.17-52.44-7-13.19-11.34-32-22.14-42.1-4.76-4.45-9.85-8.8-16.24-10.79-8.74-2.72-20.78,0-29.56,2.13-16.37,4-32.36,10.25-47.86,16.79-15.73,6.64-29.14,18.56-43.35,28.14-15.24,10.28-31.74,17.77-48.82,24.32-14.86,5.71-28.09,13.9-42.88,19.65-2.95,1.14-9,1-11.43,2.47-2.67,1.6-1.62,6.35-4.85,8.1-1.46.79-1.95-2.07-3.07-2-1.37.06-2.62,1.67-3.94,2.69-5.37,4.14-2.08,6.91.05,12.62,6.94,18.59,10.66,37.5,20.4,55.06a112.6,112.6,0,0,0,33,36.9c2,1.46,8.74,7.09,11.15,6.71,2.17-.33,6.58-6.1,8.08-7.67,6.8-7.1,13-14.75,19.8-21.86,10.49-11,20.59-22.3,30.78-33.44,11.82-12.95,22.28-27.61,32.93-41.44,4.9-6.36,11.2-11.55,16.65-17.44,7.32-7.94,14-16.46,21-24.72,2.1-2.5,5.62-8.9,8.88-8.82,2.29.05,6.32,5.44,7.52,7.12,4.45,6.28,4.43,17.61,6.64,25.44,5.4,19.1,15.13,37.76,28.48,52.5s30.28,25.08,46,36.86c17,12.76,33.12,25.82,46.61,42.31,5.35-4.95,11.18-9.34,16.56-14.36,5.12-4.77,11.78-8.65,16.3-13.87ZM451.45,564.69c3.81,0,10.25,2.38,13.65,1C455,554.49,445.74,544.91,433,536.72c-13.26-8.49-26.47-16.91-39.34-26-25.94-18.26-45-39.91-55.85-70.32-2.79-7.83-4.66-16-6.71-24.09-1.1-4.33-3.29-24.61-7-26.37-2.2-1-18.78,10.62-21.41,12.07A186,186,0,0,1,284,410.73a294.09,294.09,0,0,1-42.2,13.71c-17.35,4.37-29.17-2.85-39.92-16.49-12.2-15.48-22.33-32.93-33.48-49.18a151.59,151.59,0,0,1-13-22.93c-2.45-5.33-12.17-19.72-8.81-25.4,9.58,7.29,13,21.8,19.56,31.57,8.13,12.17,17.3,23.65,25.48,35.82,6.88,10.22,13.89,22.62,24,30,8.94,6.47,17.43,4.48,27.05,1.57,11.65-3.52,23.74-5.25,35.16-9.62,12.36-4.73,24.06-11.44,36.12-16.9,5.63-2.55,12.36-4,17.66-7.18,4.56-2.74,3.88-4.19,4.22-10,.39-6.8.84-13.61,1.14-20.42.2-4.57-2.27-10.78-.59-14.19-13.69,2.37-27.08,5.55-40.68,8.37-7.44,1.54-14.62,3.44-22.14,4.65-2.87.46-6.79.45-9.35,1.7q-3.08-.88-3.14,1.12a13.16,13.16,0,0,1-.46,2.14c-4.2,1.91-6.64-2.19-10.29-6.12-4.49-4.85-7.85-10.31-11.15-16-7.37-12.74-15.87-24.72-22.69-37.82-7-13.36-12.6-27.66-18.5-41.51-5.41-12.72-8.87-26.46-14.84-38.87a69.32,69.32,0,0,0-10-14.81c-3.26-3.86-8.27-12.19-13.13-14-1.29-.47-4.65.32-6.12.21-2.91-.21-5.5-1.27-8.48-1-6.45.5-13.49,4.58-18.64,8.17,3.33,3,11.66,6.58,5.68,11.93-5.81,5.2-9-4.12-11.24-8.2-10.44,8.57-8.93,20.39-10.14,32.5-.63,6.33-2.28,12.56-3.35,18.78-.77,4.49-.23,9.12-.45,13.7-.56,11.63-1.73,22.77-1.68,34.23.06,12.26.9,24.1,1.88,36.27,1.65,20.49,5.43,41,8.68,61.31,1.82,11.42,4.32,22.52,6.75,33.76,2.75,12.76,7.84,24.84,10.69,37.57,2.91-3.7,5.1-3.72,9.81-3.23,3.61.38,6.05-.48,5.83,4.54-.13,3.26-3,5.74-6.19,6.31-4.14.74-5.55-1.32-7.69-4.47-.5,5.95,3.5,12.17,5.08,18,1.5,5.51,2.49,10.9,5,16.17s4.55,10.21,7,15.3c1.14,2.34,2.21,4.72,3.37,7.06a18.31,18.31,0,0,0,2.15,3.81c2,2.34,1.72,1.2,4.11,2.53,5.23,2.91,3.27,2.18,3.39,8.17s3.15,10.25,8,13.57c10.3,7,20.47,9,32.19,12.57,10.92,3.32,22.42,6.17,34,6.1,14.16-.08,28.13-1.93,42.3-2.12,15.62-.21,31.39-.12,47,.42,6.42.22,12.38.5,18.58,2.14,7.21,1.91,14.17,1.15,21.59.87,15.84-.62,32.22-1.85,47.84-2,11.26-.08,23.13-.86,34.42-.18ZM862,570.83c2.82,1.48,9.13.87,12,.46,5-.73,5.52-2.7,8.69-7.15,5.44-7.65,9.86-15,13.06-23.85,6.13-17,8.64-34.33,11.33-52.09,3-19.72-2.47-40.17-4.43-59.76-.45-4.5-1.06-8.95-1.77-13.41-.42-2.67-.54-11.74-2.29-14-3.37-4.44-19.05-.86-25.22-.46-17.21,1.13-34.53,1.39-51.73,1.58-9.17.11-18.39.49-27.47.56a115,115,0,0,1-12.43-.58c-1.4-.13-2.77-.45-4.18-.53-4.83-.27-4.46-1-5.71,3.31-2.19,7.49-.51,17-1.08,24.79-.77,10.39-1.18,20.92-1,31.33.17,9.62-.16,19.22.2,28.86a45.63,45.63,0,0,0,1.64,11.06c1.19,4.31,2.5,14.39,5.47,17.37.34.34,2.86-.45,3.53.39,1,1.31.84,4.06,1.55,4.9,2.29,2.73,7,3,10.46,4.17a222.65,222.65,0,0,1,27,11.54c7.94,4.05,20.74,7.5,25.51,15.49,2.19,3.66,2.48,8.49,4.49,12.27,2.29,4.3-2.29,2.05,3.32,3.8,2.53.78,6.56,0,9.15,0ZM25.29,522.15c-.72,9.94-6.32,19.4-8.27,29.18-.91,4.57-2.46,9.07-3.53,13.62-1,4.36-4.74,9.53-4.36,13.85,13.7-4.89,27.59-6.11,41.92-7.43,13.58-1.25,27.92-1.75,41.39-1.75,13.72,0,28.39-1.35,42.52-1.56,14.77-.21,29.77-.6,44.33-2.13-7.61-5.64-17.14-10.93-22.76-18.78-6.12-8.53-9.29-19.22-14.67-28.22-10.79-18.06-17.65-40.47-23.31-60.76-11.42-41-24.18-81.17-27.26-123.65-5.85,3-10.5,14.62-13.43,20.42-3.74,7.39-5.7,15.41-8.13,23.27-5,16.19-8.48,33-14.61,49C43.4,457.87,35.87,490.9,25.29,522.15ZM769.4,283.41c2.53,18.32,7.85,36.88,8.05,55.42,0,4.08-.64,8.61.21,12.63.9,4.29,3.86,8.09,5.56,12.17,2.71,6.48,9.56,19.76,2.95,25.25-.13-5.21-4.9-11.83-7.3-16.38-3.62-6.87-8.37-13.14-12.3-19.83a275.76,275.76,0,0,0-28-40.07c-10.31-12-22.19-22.7-33.12-34.16-3.29-3.44-29.63-36.57-30.68-36.1,8.17,31.51,22.06,58.93,41.08,85.32,9.32,12.93,20.5,21.44,31.85,32.4,9.45,9.13,27.26,18.88,24,33.84,14.77-1.42,29.45-3.69,44.35-3.69-2.45-18.87-4.33-37.43-8.7-56-5-21.07-8.34-42.77-12.54-64-4.29-21.7-11.57-42.71-16.09-64.37-4.34-20.74-8.06-41.44-11.24-62.41-2.63,11.62-1.66,24.38-2.59,36.24a343.64,343.64,0,0,0-.54,36.18c.58,22.63,3,45,5,67.57Zm64-107.9c.09-9.68,2-19.24,2.54-28.9.18-3,3.13-23.2.38-24.25-2.27,4.93-2.79,11.25-4.85,16.43s-4.8,10.11-6.78,15.32c-4.27,11.29-5.74,24.07-6.2,36.07-1,27.16-1.58,54.25.24,81.4.79,11.64,1.38,23.29,1.17,35-.23,12.83-2.2,24,.19,36.69a308.22,308.22,0,0,1,4.63,37.94c.55,9,.77,8.34,9.34,7.71,6.18-.46,12.42,0,18.61-.26-2.89-35-3.37-70-8-104.86-2.36-17.78-2.42-35.81-5.35-53.52-1.46-8.8-3.9-17.42-5.31-26.22-1.5-9.46-.76-19-.62-28.51Zm-626.1-22c16.48,1.43,34,6.36,50.91,3.1-2.79-1.12-10.08-2.68-6.8-7.13s9,1.21,12.28.62c2.06-.37,6.59-8.94,7.85-10.71,2.87-4,3.22-4.74,8.38-5.78,5-1,6.13.09,6.76-4.88.73-5.72-1.25-12.14-1.05-18,.42-12.58,4.47-23.61,8.25-35.45-16.05,3.49-31.74,7.63-48.14,9.88-7,1-17.93,3.18-24.3-1.58-1.66-1.24-1.39-2.92-2.75-4.35a21.57,21.57,0,0,0-9.72-5.6c-19.84-4.22-21.78,24.07-11.83,34.66,2.49,2.65,6,4,8.5,6.39,3.41,3.24,3.69,6.66,4.18,11.61a51.42,51.42,0,0,1-4.29,27.08ZM448.14,287.07c5.86,1.11,12,.86,17.85,1.81,2.09.34,8.34,1.51,10.18.29,2.8-1.86,3.8-8.69,5.12-11.88,2.33-5.59,5.63-10.48,7.85-16.17,9.08-23.28,17.55-46.65,28.53-69.14-4.21-1.09-7.44-1.13-11.68-1.7-4.42-.59-8.43-3.2-12.65-4.32-4-1.07-8.2-.8-12.17-2-2.19-.68-4.06-2.2-6.22-2.73-3.44-.85-7.45-1.34-9.49.91s-2.83,8.66-4,11.65c-3,8-6.57,15.65-9.11,23.8-2.29,7.34-4.47,14.61-6.49,22-2.14,7.82-6.34,14.27-8.91,21.75-1.94,5.69-3.78,11.51-4.07,17.58-.29,5.92-1.15,6.3,4.77,7.24,3,.48,7.65,2.26,10.46.92ZM833.63,564.19a4.16,4.16,0,0,0,4.32-.29c-13.23-5.58-26.1-13.33-39.91-17.17-12.94-3.59-25.53-7.89-38-12.32-10.13-3.6-19.25-6.4-28.41-12.73A53.54,53.54,0,0,1,717.3,507.9c-4.25-6.26-5.2-15.16-9.81-20.79-6.21,6.83-13.52,12-20.88,17.43-2.55,1.88-8.65,6-9.52,8.88-1.1,3.67,1.84,7.18,3.3,10.89,3.72,9.5,5.55,19,7.57,28.88.81,4,2.56,9.92,5.82,11.57,3,1.51,11.54.42,15.22.14,19.23-1.46,38.12-2.95,57.47-1.63,21.89,1.51,45.33,2.54,67.16.92ZM872,388.08c3.49,0,6.91-.43,10.39-.43-2-9.38,2.69-21.53,4.36-30.9,1.86-10.48,3.28-21.31,4.52-31.87a572.84,572.84,0,0,0,3.84-66.64c0-21.69,4-41.51,9.51-62.36,5.94-22.39,15.66-42.52,23.7-64.12-8.81,4.67-13.7,15.58-18.33,23.92a118.39,118.39,0,0,0-12.15,34c-4.62,22.84-9.68,45.75-15,68.55-5.55,23.74-8.81,47.69-15.16,71.24-3.1,11.48-7.31,25.61-7.55,37.45-.09,4.89-1.57,15.15.65,19.41,2.08,4,6.67,2.1,11.22,1.7ZM344.49,358.62a71.76,71.76,0,0,1-.79,7.17c4.84-.05,11-5.07,15.12-7.33,5.06-2.74,10.12-5.77,15.07-8.54,9.55-5.33,20.39-8.84,30.59-13.22,11.71-5,22.48-11.11,33.68-17.17,3.92-2.12,32-14.31,31.57-17.64l-18.53-.61c-5.29-.18-13.49,1-18.56-.62-2.77-.9-5.89-4.2-6.94-6.78s1.3-14.32-.06-15.07c-6.91,7.05-11.25,16.43-17.43,24-6.83,8.41-15.65,13.32-25.37,17.79-10.74,4.94-21.85,8.76-32.83,13-4.63,1.79-4.53,2.81-4.94,7.88-.45,5.67-.4,11.43-.58,17.11ZM902.43,572c11.64,1.25,23.57.54,35.3,1.51,4.27.36,10.19.88,5.89,6.61-2.7,3.61-11.36,2.45-15.29,2.7-10.55.67-21.72.31-32.29.16-2.23,0-4.69-.7-6.94-.55-2.6.17-5.71,2-8.07,2-1.46,0-2-1.55-3.24-1.69a73.24,73.24,0,0,0-8.25-.53c-41.79,0-83-.83-124.69-.88-19.93,0-40.19-.36-60.11-1.3-4.19-.2-28,.66-27.35-6.88.34-3.88,8.11-4.42,11-4.83,2.1-.31,4.29-.26,6.39-.37,5.6-.3,8,1,6.87-5.08-4.48-23.23-12.5-42.43-29.65-59.14-14-13.66-30.91-26.05-46.79-37.45-19.28-13.85-34.93-28.42-46.38-49.61-6.68-12.38-12.28-25-15.71-38.72-1.24-4.92-1.27-10.52-2.78-15.26-1.17-3.66-3.82-6.21-5.39-10-19.18,32.05-44.61,58.86-67.93,87.75a343.8,343.8,0,0,1-37.16,38.93c-3.95,3.56-7.64,7.28-11.32,11.12-3.09,3.21-8,6.06-10.59,9.62s-1.88,3.25,1.92,6c5,3.58,10.57,6.56,15.67,10.06,8.16,5.58,17.07,10.31,24.36,17,7.9,7.28,14.79,15.7,21.69,23.9,4.59,5.47,10.63,12.49,11.78,19.4.38,2.29,1.84,7.94-.08,9.62-1.64,1.43-1.48.88-3.51,0-2.67-1.14-3.45-3.77-6.71-5-8.34-3.2-18.43-2.1-27.11-2.14s-17.43.94-26.11.9c-19.81-.08-39.2,1.52-59,2.39-21,.91-42.33-1.28-63.29-1-15.54.23-31.48-.93-47.45-.07-8.21.44-16.27-.59-24.28-.7-10.48-.15-21.25,1.27-31.82,1.48-17.35.33-34.49.33-51.95.75-37.55.9-74.9,1.82-112.47,2.42-5,.08-10.5-.09-15.45.47-5.26.6-2.55,1.72-6.15,3.61C-2.17,594.53.16,574.89.4,571,1.7,550.34,7,530,13.27,510.39c6-18.64,10.85-38.14,15.92-57.18,5.56-20.83,12.79-40.82,19.36-61.45,6.73-21.14,12.21-43.11,24.44-61.85,2.79-4.27,5.66-8.86,10.14-11.55,5-3,5.24-1.26,5.24-6.78,0-5.2.32-12.14-.91-17.11-1.11-4.48-.94-1.82-3.44-5-2-2.62-4.15-4.41-5.61-7.59-9,9.08-29.46,4.29-38.11-2.25-10.59-8-18.66-21.51-21.62-34.37-2.37-10.32.54-30,12-35,5.57-2.42,26-4.25,26.86-12.14.42-4.07-6.78-9.8-8.44-13.3-3.08-6.49-6-15.12-6.9-22.23-1.67-13.88,4.63-29.4,14.67-38.78,18.42-17.2,50.82-26,74.51-15.12-5-19.12-8-35.62-5.51-55.51C128,36,138.13,26.44,152,17.9c23.74-14.57,56-20.32,83.17-16.08,6.17,1,12.09,3,17.8,4.67,8.3,2.39,18.24,1.59,26.07,5.47,5.68,2.81,10,8.41,15,12.15C299.89,28.47,304.73,35,308.78,41c8.65,12.89,5.27,36.8-2,49.73a21.59,21.59,0,0,1-6.05,7c-2.67,2-6.75,2.58-8.13,5.13-3.53,6.55-.12,20.72.35,27.79.55,8.22-3.61,14.39-12.92,15-5.39.38-5.56-2.75-8.14,3.69-1.67,4.17-3.19,8.71-5.61,12.53-5,7.88-14.08,7.11-22.38,6.89-9.61-.24-19.07-1.76-28.69-2.72,2.54,8.14,9.49,14.45,13.83,21.7,5.87,9.8,9.4,17.92,10.36,29.34.73,8.78-.85,15.71-6.86,22.24-2.48,2.7-4.68,2.83-4.07,6,.38,1.9,3.67,5,4.83,6.56,3.08,4,6.66,7.7,9.37,12,10.42,16.5,13.5,41.66,13.53,60.87,0,.88.47,2.75.08,3.66a38.68,38.68,0,0,1-2.51,3c-.42,2.47,2,6.7,5.76,7.12,4,.44,11.24-2.87,14.93-4,5.91-1.74,11.93-3,17.83-4.82,9.52-2.88,19-5.19,28.67-7.45,4.38-1,8.78-1.88,13.16-2.83,5-1.09,7.32-3.19,9.9,1.89,2.22,4.37.84,5.16,6.2,3s10.53-4.9,15.72-7.36c9.17-4.35,20.09-8.23,28-14.64,13.19-10.71,18.08-27.77,30.7-39.13,3.51-3.16,5.61-3.22,7.83-7.6,2.38-4.69,3.61-10.71,4.86-15.76,2.19-8.83,3.75-17.7,5.74-26.53,2.47-11,7.82-21,11.72-31.45,1.52-4.08,2.31-9.28,4.76-13,.65-1,1.9-1.52,2.4-2.33,1.75-2.77,1.73-3.53,2.18-6.86,2.12-15.55,11.4-7.37,21.55-3.8,4.27,1.5,24.57,11.25,16.82,17.73,9.24,2.68,24,1.23,23.92,14.47-.07,6.78-4.13,14-6.3,20.39-1.94,5.64-3.81,11.3-5.77,16.93-4.31,12.33-9.53,24.3-13.73,36.67-1.92,5.64-3.5,11.41-6.16,16.73-2.35,4.69-8.05,9.87-9,15,24.63-10.51,47.41-25.69,75-24.73,12.07.43,23,5.5,29.68,16.11,8.36,13.3,13.86,28.19,22,41.62,29.71,48.82,65.15,93.18,97.77,140,2.5,3.6,5.72,7,6.59,11.45.57,2.9-.53,5.8.15,8.58,1.41,5.79,8.54,13,13.37,16.35,9.27,6.38,24.33,15.37,35.89,14.58-7.25-17.44-7.15-36.55-6.82-55.16.32-17.67,2.23-35.2,4.5-52.68a70.48,70.48,0,0,1,2.1-11.46c1.3-4.4,3.09-4-.81-7.94-6-6.09-13.18-11.1-19.24-17.27-13.12-13.33-26.56-23.78-36.89-39.71-9.81-15.14-20.17-30.73-27.44-47.31-7.48-17.07-10.47-35.31-14.19-53.39-1.5-7.33-7-15.53-5.9-23.19,1.4-9.68,5.89-2.63,7.72,2.58,5.58,15.91,18.64,30.15,29.45,42.94,11.69,13.82,26,25.38,38.19,38.8,13.28,14.61,22.38,31.41,34.2,47,0-19.36-6.61-39.08-9.32-58.23-2.38-16.85-3.12-33.76-4.63-50.69-3.41-38.46-.46-78,4.33-116.24,2.28-18.13,1-35.84,1.06-54,0-5.79-2.38-19.14.68-24.28,5.85-9.84,9.26,11.68,9.56,14.89,1.76,19.11-1.41,38,.21,57.05,1.7,19.88,5.37,39.2,8.5,58.84,3.39,21.28,8.91,42.07,14.19,62.94,5.55,21.9,10.21,44.27,16.38,66,1.66-6.83-.67-15.22-1.14-22.18-.65-10-1.94-19.92-2-29.9-.18-15.91-.3-32.11.6-47.95.88-15.6.62-32,5.4-47a160.91,160.91,0,0,1,8.87-20.82c4-8.29,5.44-16.33,7.67-25.14,1.91-7.55,4.7-14.91,6-22.61.79-4.79,3-18.93,8.48-8.22,3.18,6.22,1.81,15.44,1.9,22.12.11,8.56-1.2,16.89-1.4,25.42-.39,16.73-.67,33.44-1.92,50.15a184.15,184.15,0,0,0,3.17,50.5c3.65,18.9,4.71,37.84,6.6,57,1,9.88,2.62,19.71,3.42,29.6.42,5.24-1.74,20.26,2,24,.36-9.07,3-18.15,4.93-27,2.34-10.48,3.28-21.49,5-32.12,2.79-17.21,8.2-33.65,11.77-50.67,7.38-35.09,13.51-80.18,44.41-103.15,4-3,8.49-5.22,12.86-7.69,2.48-1.4,6.16-5,9-5.66,3.09-.69,4.38-.15,5.63,3.43,1.75,5-1.45,7.34-4.43,11-10.32,12.56-14.73,28.67-21.11,43.4-14.59,33.74-21,69.33-21.12,105.8a533.2,533.2,0,0,1-3.4,56.49c-2.19,20.42-5.07,42-11.28,61.67,6.23,1.39,13-.69,14.67,6.55.41,1.78-.34,3.88.12,6.19s1.52,4.48,2.15,6.69a95.33,95.33,0,0,1,2.65,13.79c2.47,18.14,6.7,35.4,7.15,53.81.42,17-2.91,34.24-6,50.92s-12,31.12-18.94,46.32c3,0,6,0,9,.06Z"/><path id="ink-layer-2" data-name="ink-layer" class="cls-2" d="M507.43,533.36c-3.31.93-19.28,2.7-19.28,7.71,0,3,16,2.95,18.78,3.28.17-3.66.34-7.33.5-11M542.71,568c9.2,1.75,21.7-.71,27.59-8.83,2.75-3.8,4.05-9.56,5-14.09.86-4.32,3.5-15.08,1.7-19.12-2.21-5-23.36.22-29.52.79a210.24,210.24,0,0,1-32.62.41c0,11.1-.57,21.93,6,31.49,4.71,6.89,13.56,8.52,21.94,9.35m-1.86,13.71c-10-3.66-20.5-1.28-27-12a42.57,42.57,0,0,1-4-8.68,26,26,0,0,1-1.14-4.08q.77-4.49-3.29-2.53c-5.31-1-11.12,2.61-16.71,1.54-13.55-2.6-11.08-22-2-28.73,1.79-1.33,3.59-1.7,5.64-2.35,4.54-1.45,7,.17,11.13-.24,3.35-.33,4.27-3.85,7.87-5.39,2.36-1,5.63-.94,8.11-1,13-.53,26-.53,39-1.37,6.09-.4,12.66.57,18.62-.47,2.79-.49,2.39-2.35,5-.72s1.55,7.93,1.41,10.42c-.8,14.39-1.65,29.83-9.36,42.41-7.06,11.52-20.94,12.69-33.3,13.25"/><path id="ink-layer-3" data-name="ink-layer" class="cls-2" d="M12.47,585.64l9.64-.1-9.64.1"/><path id="ink-layer-4" data-name="ink-layer" class="cls-2" d="M906.29,278.76q0-4.63,0-9.27,0,4.65,0,9.27"/><path id="ink-layer-5" data-name="ink-layer" class="cls-2" d="M87.47,291.46c0,3,0,6,0,9l0-9"/><path id="ink-layer-6" data-name="ink-layer" class="cls-2" d="M355,582.23h0"/><path id="ink-layer-7" data-name="ink-layer" class="cls-2" d="M199.54,581.61l7.67,0-7.67,0"/><path id="ink-layer-8" data-name="ink-layer" class="cls-2" d="M759.45,456.52c-.11,2-.23,4.07-.34,6.09q.18-3,.34-6.09"/><path id="ink-layer-9" data-name="ink-layer" class="cls-2" d="M902.44,572l-5.94-.06a7.32,7.32,0,0,1,5.94.06"/><path id="ink-layer-10" data-name="ink-layer" class="cls-2" d="M726.73,581l4.25-.07-4.25.07"/><path id="ink-layer-11" data-name="ink-layer" class="cls-2" d="M905.52,303.85c0-1.54.07-3.07.11-4.6,0,1.54-.07,3.07-.11,4.6"/><path id="ink-layer-12" data-name="ink-layer" class="cls-2" d="M772.69,109.46c-.11-1.58-.23-3.17-.35-4.75.12,1.59.24,3.17.35,4.75"/><path id="ink-layer-13" data-name="ink-layer" class="cls-2" d="M906.23,284.82c0-1.59,0-3.18,0-4.76,0,1.59,0,3.17,0,4.76"/><path id="ink-layer-14" data-name="ink-layer" class="cls-2" d="M459.54,579l3.78.06-3.78-.06"/><path id="ink-layer-15" data-name="ink-layer" class="cls-2" d="M784.85,581.6l3.69.08-3.69-.08"/><path id="ink-layer-16" data-name="ink-layer" class="cls-2" d="M918.2,469.89c-.09-1.39-.18-2.78-.26-4.17.08,1.39.17,2.78.26,4.17"/><path id="ink-layer-17" data-name="ink-layer" class="cls-2" d="M896,583l3,0-3,0"/><path id="ink-layer-18" data-name="ink-layer" class="cls-2" d="M759.12,581.67l3-.08-3,.08"/><path id="ink-layer-19" data-name="ink-layer" class="cls-2" d="M535.43,580.91l3.28,0-3.28,0"/><path id="ink-layer-20" data-name="ink-layer" class="cls-2" d="M282.82,580.9l3.12,0-3.12,0"/><path id="ink-layer-21" data-name="ink-layer" class="cls-2" d="M221.37,581.07l3.18-.18-3.18.18"/><path id="ink-layer-22" data-name="ink-layer" class="cls-2" d="M515.58,176.45l-4.74-.41c1.58.11,3.25-.82,4.74.41"/><path id="ink-layer-23" data-name="ink-layer" class="cls-2" d="M918.35,572.58l-4.67-.47,4.67.47"/><path id="ink-layer-24" data-name="ink-layer" class="cls-2" d="M809.68,186.05c-.11,1.36-.21,2.73-.32,4.09.11-1.37.21-2.73.32-4.09"/><path id="ink-layer-25" data-name="ink-layer" class="cls-2" d="M906.62,243c.1-1.3.21-2.59.32-3.88-.11,1.3-.22,2.59-.32,3.88"/><path id="ink-layer-26" data-name="ink-layer" class="cls-2" d="M809.06,207.22c-.11,1.36-.23,2.72-.34,4.08.11-1.36.23-2.72.34-4.08"/><path id="ink-layer-27" data-name="ink-layer" class="cls-2" d="M906,295.2l0-3.95a3.5,3.5,0,0,1,0,3.95"/><path id="ink-layer-28" data-name="ink-layer" class="cls-2" d="M759.47,484.33l0,3.95a3.53,3.53,0,0,1,0-3.95"/><path id="ink-layer-29" data-name="ink-layer" class="cls-2" d="M858.78,331.6c-.16-1.33-.31-2.67-.46-4,.15,1.34.3,2.67.46,4"/><path id="ink-layer-30" data-name="ink-layer" class="cls-2" d="M36.51,209c-1,1.36-2.44.43-3.67.59l3.67-.59"/><path id="ink-layer-31" data-name="ink-layer" class="cls-2" d="M547.3,517.72h0"/><path id="ink-layer-32" data-name="ink-layer" class="cls-2" d="M755.8,214.58l.36,3.33-.36-3.33"/><path id="ink-layer-33" data-name="ink-layer" class="cls-2" d="M110.85,104.34l-3.93.08a3.41,3.41,0,0,1,3.93-.08"/><path id="ink-layer-34" data-name="ink-layer" class="cls-2" d="M809,226.42c-.09,1.16-.17,2.33-.26,3.49.09-1.17.17-2.33.26-3.49"/><path id="ink-layer-35" data-name="ink-layer" class="cls-2" d="M773.05,83.54l.3-3.18-.3,3.18"/><path id="ink-layer-36" data-name="ink-layer" class="cls-2" d="M762.74,80.21c-.11,1.16-.21,2.31-.31,3.45.1-1.15.2-2.3.31-3.45"/><path id="ink-layer-37" data-name="ink-layer" class="cls-2" d="M192.84,3.32l-4,.49,4-.49"/><path id="ink-layer-38" data-name="ink-layer" class="cls-2" d="M96.42,105.26l-4.11.42,4.11-.42"/><path id="ink-layer-39" data-name="ink-layer" class="cls-2" d="M847.15,108.63c.09-1.07.17-2.14.25-3.21-.08,1.08-.16,2.14-.25,3.21"/><path id="ink-layer-40" data-name="ink-layer" class="cls-2" d="M51.45,285.39l2.36,0-2.36,0"/><path id="ink-layer-41" data-name="ink-layer" class="cls-2" d="M762.78,417.57l-.24,3.56.24-3.56"/><path id="ink-layer-42" data-name="ink-layer" class="cls-2" d="M843.26,186.77l-.09-3.42.09,3.42"/><path id="ink-layer-43" data-name="ink-layer" class="cls-2" d="M226.45.62H222.8a3,3,0,0,1,3.65,0"/><path id="ink-layer-44" data-name="ink-layer" class="cls-2" d="M551.36,269.64l-4,.1a3.35,3.35,0,0,1,4-.1"/><path id="ink-layer-45" data-name="ink-layer" class="cls-2" d="M667.85,579l2.36,0-2.36,0"/><path id="ink-layer-46" data-name="ink-layer" class="cls-2" d="M697.61,580.35l2.35-.08-2.35.08"/><path id="ink-layer-47" data-name="ink-layer" class="cls-2" d="M231.91,580.9l2.46.07-2.46-.07"/><path id="ink-layer-48" data-name="ink-layer" class="cls-2" d="M917.52,456.67l-.36-3.39.36,3.39"/><path id="ink-layer-49" data-name="ink-layer" class="cls-2" d="M810,266.17c.1,1.08.19,2.15.28,3.22-.09-1.07-.18-2.15-.28-3.22"/><path id="ink-layer-50" data-name="ink-layer" class="cls-2" d="M851.4,247.68l-.39-3.42.39,3.42"/><path id="ink-layer-51" data-name="ink-layer" class="cls-2" d="M238.59,581.58l2.48,0-2.48,0"/><path id="ink-layer-52" data-name="ink-layer" class="cls-2" d="M540.85,581.67l2.42-.1-2.42.1"/><path id="ink-layer-53" data-name="ink-layer" class="cls-2" d="M844.65,164.29c0-1.16-.08-2.31-.11-3.47,0,1.16.07,2.32.11,3.47"/><path id="ink-layer-54" data-name="ink-layer" class="cls-2" d="M159.88,582.34l2.42,0-2.42,0"/><path id="ink-layer-55" data-name="ink-layer" class="cls-2" d="M844.31,582.33l2.48,0-2.48,0"/><path id="ink-layer-56" data-name="ink-layer" class="cls-2" d="M862.28,582.23l2.4.17-2.4-.17"/><path id="ink-layer-57" data-name="ink-layer" class="cls-2" d="M869.54,582.22l2.45.06-2.45-.06"/><path id="ink-layer-58" data-name="ink-layer" class="cls-2" d="M906.82,252.27c-.06-1.14-.11-2.28-.16-3.42.05,1.14.1,2.28.16,3.42"/><path id="ink-layer-59" data-name="ink-layer" class="cls-2" d="M357.48,567.3l7.47-.39-7.47.39"/><path id="ink-layer-60" data-name="ink-layer" class="cls-2" d="M207.29,153.5l6.49.56-6.49-.56"/><path id="ink-layer-61" data-name="ink-layer" class="cls-2" d="M817.44,247.45q.1,3.11.21,6.18l-.21-6.18"/><path id="ink-layer-62" data-name="ink-layer" class="cls-2" d="M862,570.82l6.77.41c-2.27.11-4.58.75-6.77-.41"/><path id="ink-layer-63" data-name="ink-layer" class="cls-2" d="M848.69,326.92c0-2,0-3.94,0-5.9,0,2,0,3.93,0,5.9"/><path id="ink-layer-64" data-name="ink-layer" class="cls-2" d="M842.92,388.72l5.93.08-5.93-.08"/><path id="ink-layer-65" data-name="ink-layer" class="cls-2" d="M344.63,354.14c-.05,1.5-.1,3-.14,4.49.05-1.5.09-3,.14-4.49"/><path id="ink-layer-66" data-name="ink-layer" class="cls-2" d="M875.86,290.66q-.12,2.25-.24,4.47l.24-4.47"/><path id="ink-layer-67" data-name="ink-layer" class="cls-2" d="M833.63,564.19l4.32-.29c-1.09.87-2.18.94-4.32.29"/><path id="ink-layer-68" data-name="ink-layer" class="cls-2" d="M824,369.19l.3,4.82-.3-4.82"/><path id="ink-layer-69" data-name="ink-layer" class="cls-2" d="M285.58,115.38c0-1.55,0-3.1,0-4.65,0,1.56,0,3.11,0,4.65"/><path id="ink-layer-70" data-name="ink-layer" class="cls-2" d="M825.74,389l5.36-.11a6.22,6.22,0,0,1-5.36.11"/><path id="ink-layer-71" data-name="ink-layer" class="cls-2" d="M875.25,400.5l-3.79,0,3.79,0"/><path id="ink-layer-72" data-name="ink-layer" class="cls-2" d="M411.78,564.81l5.26.06a5.07,5.07,0,0,1-5.26-.06"/><path id="ink-layer-73" data-name="ink-layer" class="cls-2" d="M81.75,570l5.33-.48-5.33.48"/><path id="ink-layer-74" data-name="ink-layer" class="cls-2" d="M818.06,260.7c.09,1.61.17,3.22.26,4.83-.09-1.61-.17-3.22-.26-4.83"/><path id="ink-layer-75" data-name="ink-layer" class="cls-2" d="M250.52,157.29a4.79,4.79,0,0,1,4.53-.08l-4.53.08"/><path id="ink-layer-76" data-name="ink-layer" class="cls-2" d="M769,279.33c.12,1.36.24,2.73.37,4.08-.13-1.36-.25-2.72-.37-4.08"/><path id="ink-layer-77" data-name="ink-layer" class="cls-2" d="M895.65,247.57a3.68,3.68,0,0,1,0-4c0,1.32,0,2.64,0,4"/><path id="ink-layer-78" data-name="ink-layer" class="cls-2" d="M818.3,201.33c0,1.34,0,2.69,0,4,0-1.35,0-2.69,0-4"/><path id="ink-layer-79" data-name="ink-layer" class="cls-2" d="M872,388.08c1.54-.48,3.08-1.15,4.62,0H872"/><path id="ink-layer-80" data-name="ink-layer" class="cls-2" d="M373.43,566.69l4.66-.43-4.66.43"/><path id="ink-layer-81" data-name="ink-layer" class="cls-2" d="M160.59,566.69c1.42-.62,2.84-1,4.24,0l-4.24,0"/><path id="ink-layer-82" data-name="ink-layer" class="cls-2" d="M451.45,564.69c1.52-.67,3-1,4.54,0l-4.54,0"/><path id="ink-layer-83" data-name="ink-layer" class="cls-2" d="M113,368c.12,1.37.23,2.75.35,4.12-.12-1.38-.23-2.75-.35-4.12"/><path id="ink-layer-84" data-name="ink-layer" class="cls-2" d="M466,288.88a4.8,4.8,0,0,1,4.45.08l-4.45-.08"/><path id="ink-layer-85" data-name="ink-layer" class="cls-2" d="M818,329.75l.24,4-.24-4"/><path id="ink-layer-86" data-name="ink-layer" class="cls-2" d="M112,208.66c-.13,1.08-.25,2.16-.37,3.23.12-1.08.24-2.16.37-3.23"/><path id="ink-layer-87" data-name="ink-layer" class="cls-2" d="M25.29,522.15c-.08,1.05-.16,2.1-.23,3.15.08-1.06.15-2.11.23-3.15"/><path id="ink-layer-88" data-name="ink-layer" class="cls-2" d="M849.35,336.85c-.08-1.09-.16-2.18-.25-3.26.09,1.09.17,2.18.25,3.26"/><path id="ink-layer-89" data-name="ink-layer" class="cls-2" d="M740.4,562.66l4,0-4,0"/><path id="ink-layer-90" data-name="ink-layer" class="cls-2" d="M344.13,363.4c.25.79.49,1.58.74,2.37-1.66.41-1.91-.39-.74-2.37"/><path id="ink-layer-91" data-name="ink-layer" class="cls-2" d="M444.08,287.09l4.06,0c-1.35.64-2.7,1.08-4.06,0"/><path id="ink-layer-92" data-name="ink-layer" class="cls-2" d="M113.72,374.46c0,1.2.09,2.4.14,3.6,0-1.2-.09-2.4-.14-3.6"/><path id="ink-layer-93" data-name="ink-layer" class="cls-2" d="M128.05,568h0"/><path id="ink-layer-94" data-name="ink-layer" class="cls-2" d="M772.31,387.11l.15,3.31-.15-3.31"/><path id="ink-layer-95" data-name="ink-layer" class="cls-2" d="M100.3,569.35a3.37,3.37,0,0,1,3.86,0H100.3"/><path id="ink-layer-96" data-name="ink-layer" class="cls-2" d="M134.14,193.22l.21,3.38-.21-3.38"/><path id="ink-layer-97" data-name="ink-layer" class="cls-2" d="M93.62,569.47l4,0a3.19,3.19,0,0,1-4,0"/><path id="ink-layer-98" data-name="ink-layer" class="cls-2" d="M833.4,175.51l0-3.43,0,3.43"/><path id="ink-layer-99" data-name="ink-layer" class="cls-2" d="M220.05,155.47l3.84.5-3.84-.5"/><path id="ink-layer-100" data-name="ink-layer" class="cls-2" d="M107.28,254.37c0,1.07,0,2.14,0,3.21,0-1.08,0-2.14,0-3.21"/><path id="ink-layer-101" data-name="ink-layer" class="cls-2" d="M842,254.22,841.8,251l.21,3.27"/><path id="ink-layer-102" data-name="ink-layer" class="cls-2" d="M543.93,568.19l4.73.43-4.73-.43"/><path id="ink-layer-103" data-name="ink-layer" class="cls-2" d="M538.67,527.37l-2.55,0,2.55,0"/><path id="ink-layer-104" data-name="ink-layer" class="cls-2" d="M538.74,567.57l4,.39-4-.39"/><path id="ink-layer-105" data-name="ink-layer" class="cls-2" d="M300.72,478.5c1.72,9.72-13.39,19.23-14.59,5.41-.44-5.06,2.94-8.61,6.72-11.7,5.38-4.38,8.38-.19,7.87,6.29"/><path id="ink-layer-106" data-name="ink-layer" class="cls-2" d="M134.14,359.86c3.56,1.46,30.76,10.32,16.64,14.78-3.74,1.18-9.4,1.35-12.64-.72-3.9-2.51-7.83-9.89-4-14.06"/><path id="ink-layer-107" data-name="ink-layer" class="cls-2" d="M140.84,228.18c9.23-1.08,17.74,14.09,6.35,13.6-8.28-.36-19.42-13.6-6.35-13.6"/><path id="ink-layer-108" data-name="ink-layer" class="cls-2" d="M173.86,265.35c7.71,6.73-6.58,21.78-12.25,16-2.9-3-.22-9.39,2.17-11.88s6.82-3,10.08-4.08"/><path id="ink-layer-109" data-name="ink-layer" class="cls-2" d="M196.81,439.72c-4.55.73-24.56,7.27-20.39-4.61,1.59-4.53,6-3.19,10.09-3,6.55.33,10.3,0,10.3,7.59"/><path id="ink-layer-110" data-name="ink-layer" class="cls-2" d="M183.63,470.32c6.81,3.65-3.15,24-8.79,19.7-7.84-6,2.88-17.87,8.79-19.7"/><path id="ink-layer-111" data-name="ink-layer" class="cls-2" d="M213.34,453.92c3.32-1.35,18.93,13.67,13,17.85-3.05,2.14-8.82-1.53-10.66-3.74-3.44-4.15-3.75-9.28-2.33-14.11"/><path id="ink-layer-112" data-name="ink-layer" class="cls-2" d="M123.24,331.14c3.39.55,9.23.73,9.45,5.49.19,4.18-5,5.54-8.74,5.86s-8.9-.74-9-5.55c-.08-5.2,8.14-4.88,8.26-5.8"/><path id="ink-layer-113" data-name="ink-layer" class="cls-2" d="M206.74,538.19c3.61,2.19,20.43,10.07,13.22,15.77-2.7,2.13-10.88-2.27-12.72-4.51-2.2-2.67-4.35-8.93-.5-11.26"/><path id="ink-layer-114" data-name="ink-layer" class="cls-2" d="M253.5,481c-.52-8.7,14.15-12.17,11.11.18-.86,3.48-1.69,8.77-6,9-5.09.24-5.27-5.78-5.12-9.15"/><path id="ink-layer-115" data-name="ink-layer" class="cls-2" d="M208.16,329.71c.1,6.6-12.55,12.42-12.65,2-.08-9.35,13.12-12.09,12.65-2"/><path id="ink-layer-116" data-name="ink-layer" class="cls-2" d="M199.8,295.33c3.12,1,7.26,1.52,7.54,5.48.29,4.19-3.61,6.06-7.11,5.82-2.87-.19-7.12-2.32-7.64-5.43-.77-4.58,3.7-4.88,7.21-5.87"/><path id="ink-layer-117" data-name="ink-layer" class="cls-2" d="M141.86,416.17c-.05-5.45,10.86-12,12.87-5.68.65,2-4.5,11.09-6.21,11.77-4.53,1.8-5.16-2.39-6.66-6.09"/><path id="ink-layer-118" data-name="ink-layer" class="cls-2" d="M231.3,506.81c-3.69,3.3-14.75,12.57-13.93.12.53-7.95,14.9-7.53,13.93-.12"/><path id="ink-layer-119" data-name="ink-layer" class="cls-2" d="M411.54,542.39c1.21-5.24,18.52,3.84,12.74,10.45-1.94,2.22-7,.21-9-1.1-3.85-2.6-3.94-5-3.78-9.35"/><path id="ink-layer-120" data-name="ink-layer" class="cls-2" d="M315.11,430.35c.67-2.33,1.42-6.46,3.65-8,4-2.69,7.53,1.37,7.53,5.65,0,8-9.09,10.51-11.18,2.3"/><path id="ink-layer-121" data-name="ink-layer" class="cls-2" d="M272.21,523.77c4.49,1,14.5,12,8.69,16.41-5.58,4.29-13-13.15-8.69-16.41"/><path id="ink-layer-122" data-name="ink-layer" class="cls-2" d="M276.49,441.08c5.77.46,13.72,9.82,4.74,11.3-7,1.17-15.2-9-4.74-11.3"/><path id="ink-layer-123" data-name="ink-layer" class="cls-2" d="M328.8,484.14c1.44-4.89,15.77.34,15,5.72-.43,2.86-6.29,3.53-9.37,2.77-4.53-1.11-5.71-4.09-5.6-8.49"/><path id="ink-layer-124" data-name="ink-layer" class="cls-2" d="M159.88,211.53c.1-6.31,12.23-8.88,13.12-2.52.8,5.74-13.27,11.85-13.12,2.52"/><path id="ink-layer-125" data-name="ink-layer" class="cls-2" d="M324.79,549.15c.87-3.17,1.25-7,5.21-7.41,4.54-.47,4.41,3,3.87,6.61-1.45,9.81-7,10.3-9.08.8"/><path id="ink-layer-126" data-name="ink-layer" class="cls-2" d="M133.31,286.6c-6.32,1.43-17.89-10.74-10.82-13.36,5-1.84,10.82,9.69,10.82,13.36"/><path id="ink-layer-127" data-name="ink-layer" class="cls-2" d="M213.94,381.17c-3.22,1.51-4,2.43-6.43-.05-2.15-2.17-2.06-8.2-.21-10.45,7.07-8.63,6.91,7,6.64,10.5"/><path id="ink-layer-128" data-name="ink-layer" class="cls-2" d="M240.18,363.68c3.36.42,13.33,9.88,8.14,13.64-6.37,4.6-10-9.82-8.14-13.64"/><path id="ink-layer-129" data-name="ink-layer" class="cls-2" d="M312.77,366.17c-2.44,9.39-8.53,3.07-8.18-4,.55-11.38,6.86-1.47,8.18,4"/><path id="ink-layer-130" data-name="ink-layer" class="cls-2" d="M349.78,517c4.13,1.71,9.73,17.48,3.84,18.33-6.62.95-4.42-15-3.84-18.33"/><path id="ink-layer-131" data-name="ink-layer" class="cls-2" d="M298.26,508.13c4.72-1.59,6.45,8.37,3.7,10.22-6,4.07-4.76-7.87-3.7-10.22"/><path id="ink-layer-132" data-name="ink-layer" class="cls-2" d="M253.5,481l-.18,3.95c.05-1.32.11-2.64.18-3.95"/><path id="ink-layer-133" data-name="ink-layer" class="cls-2" d="M411.54,542.39l-.15,4.06.15-4.06"/><path id="ink-layer-134" data-name="ink-layer" class="cls-2" d="M328.8,484.14l-.09,3.44.09-3.44"/><path id="ink-layer-135" data-name="ink-layer" class="cls-2" d="M851,464.34c9.79-.31,20.71-4,30.33-2.82,2.65.32,8.74,1,4.5,4.92-2,1.87-11.74.9-14.68,1.53-18,3.8-38.37,6.25-56.8,5.94-8.63-.15-17.32-.84-25.94-1.3s-9.46-3.95.23-5.07c10.07-1.15,20.4-.73,30.52-.74,10.64,0,21.23-1.75,31.84-2.46"/><path id="ink-layer-136" data-name="ink-layer" class="cls-2" d="M872.48,440.76c-.94,2.68-1.77,8.84-5.38,9.24-5.05.57-5.89-8.11-5.7-11.29.22-3.83,1.6-10.19,6.36-8.87,4,1.12,4.43,7.86,4.72,10.92"/><path id="ink-layer-137" data-name="ink-layer" class="cls-2" d="M841.87,438.8c.74-2.87,1.1-9.35,5.17-9.57,4.54-.24,5.83,6.5,5.8,9.74,0,3.06-1.16,8.86-4.78,9.57-4.9,1-5.34-6.46-6.19-9.74"/><path id="ink-layer-138" data-name="ink-layer" class="cls-2" d="M790.9,444c-1.47,3.45-2.45,8.21-7,5.85-3.52-1.82-4-9.16-3.35-12.52s2.15-7.47,6.15-5.91c4.61,1.81,4.15,8.78,4.2,12.58"/><path id="ink-layer-139" data-name="ink-layer" class="cls-2" d="M829.5,440.76c-4.34,13.16-12.25,4.26-9.25-5.56,3.14-10.27,8.85-.3,9.25,5.56"/><path id="ink-layer-140" data-name="ink-layer" class="cls-2" d="M808.36,441.41c-1.21,2.32-2.49,7.32-5.74,6.79-4-.65-4.11-8.31-3.67-11.16.38-2.5,1.5-6.66,4.84-6.61,4.81.08,4.49,8,4.57,11"/><path id="ink-layer-141" data-name="ink-layer" class="cls-2" d="M894.91,443.94c-3.23,7.25-7.67,1-6.25-4.14,2.11-7.64,6.07-.87,6.25,4.14"/><path id="ink-layer-142" data-name="ink-layer" class="cls-2" d="M815.81,466.81l-10.59,0a23.38,23.38,0,0,1,10.59,0"/><path id="ink-layer-143" data-name="ink-layer" class="cls-2" d="M885.91,461.49l-9.18.06a15.94,15.94,0,0,1,9.18-.06"/><path id="ink-layer-144" data-name="ink-layer" class="cls-2" d="M851,464.34l-7.34.5,7.34-.5"/><path id="ink-layer-145" data-name="ink-layer" class="cls-2" d="M790.9,444c0-1.76,0-3.52-.07-5.27a5.86,5.86,0,0,1,.07,5.27"/><path id="ink-layer-146" data-name="ink-layer" class="cls-2" d="M810.09,473.87l4.25,0-4.25,0"/><path id="ink-layer-147" data-name="ink-layer" class="cls-2" d="M786.24,472.61h0"/><path id="ink-layer-148" data-name="ink-layer" class="cls-2" d="M798,467l-6,.5,6-.5"/><path id="ink-layer-149" data-name="ink-layer" class="cls-2" d="M825.08,466.79h-5.93a7.33,7.33,0,0,1,5.93,0"/><path id="ink-layer-150" data-name="ink-layer" class="cls-2" d="M808.36,441.41c-.05-1.83-.1-3.66-.14-5.49,0,1.83.09,3.66.14,5.49"/><path id="ink-layer-151" data-name="ink-layer" class="cls-2" d="M780.55,437.28l0,5.36,0-5.36"/><path id="ink-layer-152" data-name="ink-layer" class="cls-2" d="M862.21,463.68l-5.23.47,5.23-.47"/><path id="ink-layer-153" data-name="ink-layer" class="cls-2" d="M894.91,443.94c-.06-1.56-.11-3.12-.17-4.68.06,1.56.11,3.12.17,4.68"/><path id="ink-layer-154" data-name="ink-layer" class="cls-2" d="M820.64,473.92l3.63-.06-3.63.06"/><path id="ink-layer-155" data-name="ink-layer" class="cls-2" d="M872.48,440.76c-.11-1.12-.21-2.24-.32-3.36.11,1.12.22,2.24.32,3.36"/><path id="ink-layer-156" data-name="ink-layer" class="cls-2" d="M829.5,440.76l-.24-3.45.24,3.45"/><path id="ink-layer-157" data-name="ink-layer" class="cls-2" d="M202.86,102.23c-4.78-1.25-5.67-8-4.9-12.09l2.61-6-1-2.2c.44-4.09-.68-5.87,4-4.22,8.74,3.09,10.14,24.17-.71,24.48"/><path id="ink-layer-158" data-name="ink-layer" class="cls-2" d="M273.6,89.25c3.94-.31,11.09,4.27,7.17,8.71-2.42,2.75-10.43,1.45-13.69,2-4.33.76-8.84,1.8-6.5-4.68,1.84-5.09,8.41-6.19,13-6"/><path id="ink-layer-159" data-name="ink-layer" class="cls-2" d="M269.46,119.75c-4-3.21-2.21-17.82,3.87-15.19,6.26,2.71-.53,13.08-3.87,15.19"/><path id="ink-layer-160" data-name="ink-layer" class="cls-2" d="M198,90.14c0,1.53,0,3.07,0,4.6a4.58,4.58,0,0,1,0-4.6"/><path id="ink-layer-161" data-name="ink-layer" class="cls-2" d="M202.86,102.23l2.44-.07-2.44.07"/><path id="ink-layer-162" data-name="ink-layer" class="cls-2" d="M696.65,522.9c-.38,6.64-7.51,1.73-7-2.71.92-8.07,5.48-.1,7,2.71"/></g></g></g></svg>