<svg xmlns="http://www.w3.org/2000/svg" viewBox="0 0 1026.9 156.03"><defs><style>.cls-1{fill:#27272a;}</style></defs><g id="Layer_2" data-name="Layer 2"><g id="Layer_1-2" data-name="Layer 1"><polygon class="cls-1" points="151.94 2.59 117.67 2.59 77.28 69.56 37.07 2.59 0 2.59 58.4 99.67 58.4 153.44 93.32 153.44 93.32 100.03 151.94 2.59"/><polygon class="cls-1" points="204.73 2.59 137.5 153.44 173.27 153.44 221.75 36.87 270.04 153.44 306.67 153.44 239.22 2.59 204.73 2.59"/><path class="cls-1" d="M422.61,9.16Q408,2.59,387.7,2.59H322.4V153.44h34.91V111.85H387.7q20.25,0,34.91-6.57t22.63-18.86q8-12.28,8-29.09,0-17-8-29.31T422.61,9.16ZM409.9,76.51q-8,6.9-24.14,6.89H357.31V31h28.45q16.17,0,24.14,6.9t8,19.4Q417.87,69.61,409.9,76.51Z"/><path class="cls-1" d="M576.27,77.15a72.54,72.54,0,0,0-17.13-7.54q-9.37-2.81-18.75-5t-17.13-4.31a37.24,37.24,0,0,1-12.5-5.71A11.15,11.15,0,0,1,506,45.26a14.21,14.21,0,0,1,2.8-8.73q2.79-3.77,9.26-6.14c4.32-1.58,9.84-2.37,16.6-2.37a77.69,77.69,0,0,1,20.69,2.91,91.83,91.83,0,0,1,21.12,8.94l10.77-26.51a81,81,0,0,0-24.35-10,118.46,118.46,0,0,0-28-3.34q-21.33,0-35.45,6.36t-21.12,17a42.09,42.09,0,0,0-7,23.6q0,12.08,4.85,19.83a38.12,38.12,0,0,0,12.6,12.5,79.5,79.5,0,0,0,17.14,7.76q9.37,3,18.75,5.06t17.13,4.31a39,39,0,0,1,12.5,5.82,11.37,11.37,0,0,1,4.74,9.59,12.89,12.89,0,0,1-3,8.41q-3,3.66-9.37,5.71t-16.7,2a84.46,84.46,0,0,1-26.83-4.41,86.74,86.74,0,0,1-23-11.32L468.3,138.57q10.13,7.77,26.72,12.61a123.22,123.22,0,0,0,34.7,4.85q21.56,0,35.67-6.47t21.23-17a40.8,40.8,0,0,0,7.11-23.28q0-11.85-4.85-19.61A38.15,38.15,0,0,0,576.27,77.15Z"/><polygon class="cls-1" points="598.47 31.03 646.74 31.03 646.74 153.44 681.66 153.44 681.66 31.03 729.93 31.03 729.93 2.59 598.47 2.59 598.47 31.03"/><path class="cls-1" d="M1026.9,153.44l-33.7-48.36c.09,0,.2-.08.3-.13q14.65-6.47,22.63-18.64t8-29q0-17-8-29.31T993.5,9.16q-14.65-6.57-34.92-6.57h-65.3V153.44H928.2v-42h30.38c.56,0,1.08,0,1.63,0l29,42.05ZM980.78,37.93q8,6.9,8,19.4,0,12.28-8,19.28t-24.13,7H928.2V31h28.45Q972.81,31,980.78,37.93Z"/><polygon class="cls-1" points="789.64 30.6 868.68 30.6 868.68 2.59 754.68 2.59 754.68 30.6 789.38 30.6 789.64 30.6"/><polygon class="cls-1" points="754.81 92.07 789.5 92.07 789.77 92.07 868.81 92.07 868.81 64.06 754.81 64.06 754.81 92.07"/><polygon class="cls-1" points="754.53 152.88 789.23 152.88 789.49 152.88 868.54 152.88 868.54 124.86 754.53 124.86 754.53 152.88"/></g></g></svg>